<svg width="106" height="81" viewBox="0 0 106 81" fill="none" xmlns="http://www.w3.org/2000/svg">
<g opacity="0.848005" filter="url(#filter0_f_411_2)">
<path d="M28 40.5C28 33.5964 33.5964 28 40.5 28H65.5C72.4036 28 78 33.5964 78 40.5C78 47.4036 72.4036 53 65.5 53H40.5C33.5964 53 28 47.4036 28 40.5Z" fill="#FAB005"/>
</g>
<path d="M28 22C28 11.5066 36.5066 3 47 3H59C69.4934 3 78 11.5066 78 22V34C78 44.4934 69.4934 53 59 53H47C36.5066 53 28 44.4934 28 34V22Z" fill="#FAB005"/>
<path d="M53.4821 27.6429L54.6518 28.1875L56.3929 27.6697V26.4554C56.3929 24.3929 54.6518 22.7411 52.5714 22.7411C50.5 22.7411 48.75 24.3839 48.75 26.4286V31.9643C48.75 32.4732 48.3393 32.875 47.8393 32.875C47.3393 32.875 46.9286 32.4732 46.9286 31.9643V29.625H44C44 31.9732 44 32 44 32C44 34.1161 45.7143 35.8304 47.8304 35.8304C49.9286 35.8304 51.6607 34.1429 51.6607 32.0536V26.5893C51.6607 26.0893 52.0714 25.6786 52.5714 25.6786C53.0714 25.6786 53.4821 26.0893 53.4821 26.5893V27.6429ZM58.2143 29.625V32.0804C58.2143 32.5804 57.8036 32.9822 57.3036 32.9822C56.8036 32.9822 56.3929 32.5804 56.3929 32.0804V29.6697L54.6518 30.1875L53.4821 29.6429V32.0357C53.4821 34.1339 55.2054 35.8304 57.3125 35.8304C59.4286 35.8304 61.1429 34.1161 61.1429 32C61.1429 32 61.1429 31.9732 61.1429 29.625H58.2143Z" fill="white"/>
<defs>
<filter id="filter0_f_411_2" x="0.817183" y="0.817183" width="104.366" height="79.3656" filterUnits="userSpaceOnUse" color-interpolation-filters="sRGB">
<feFlood flood-opacity="0" result="BackgroundImageFix"/>
<feBlend mode="normal" in="SourceGraphic" in2="BackgroundImageFix" result="shape"/>
<feGaussianBlur stdDeviation="13.5914" result="effect1_foregroundBlur_411_2"/>
</filter>
</defs>
</svg>
