<svg width="105" height="81" viewBox="0 0 105 81" fill="none" xmlns="http://www.w3.org/2000/svg">
<g opacity="0.848005" filter="url(#filter0_f_411_3)">
<path d="M27.5 40.5C27.5 33.5964 33.0964 28 40 28H65C71.9036 28 77.5 33.5964 77.5 40.5C77.5 47.4036 71.9036 53 65 53H40C33.0964 53 27.5 47.4036 27.5 40.5Z" fill="#7752BE"/>
</g>
<path d="M27 22C27 11.5066 35.5066 3 46 3H58C68.4934 3 77 11.5066 77 22V34C77 44.4934 68.4934 53 58 53H46C35.5066 53 27 44.4934 27 34V22Z" fill="#7752BE"/>
<path d="M56.1161 30.5983L46.9732 21.4554C46.8661 21.3393 46.7232 21.2858 46.5714 21.2858C46.5 21.2858 46.4196 21.3036 46.3571 21.3304C46.1429 21.4197 46 21.6251 46 21.8572V35.2858C46 35.5179 46.1429 35.7233 46.3571 35.8126C46.4196 35.8393 46.5 35.8572 46.5714 35.8572C46.7232 35.8572 46.8661 35.7947 46.9732 35.6876L49.7589 32.9018L51.4643 36.9376C51.5893 37.2233 51.9196 37.3661 52.2143 37.2411L53.7946 36.5715C54.0804 36.4465 54.2232 36.1161 54.0982 35.8215L52.3036 31.5715H55.7143C55.9464 31.5715 56.1518 31.4286 56.2411 31.2143C56.3304 31.009 56.2857 30.759 56.1161 30.5983Z" fill="white"/>
<defs>
<filter id="filter0_f_411_3" x="0.317183" y="0.817183" width="104.366" height="79.3656" filterUnits="userSpaceOnUse" color-interpolation-filters="sRGB">
<feFlood flood-opacity="0" result="BackgroundImageFix"/>
<feBlend mode="normal" in="SourceGraphic" in2="BackgroundImageFix" result="shape"/>
<feGaussianBlur stdDeviation="13.5914" result="effect1_foregroundBlur_411_3"/>
</filter>
</defs>
</svg>
