<svg width="106" height="81" viewBox="0 0 106 81" fill="none" xmlns="http://www.w3.org/2000/svg">
<g opacity="0.848005" filter="url(#filter0_f_411_1)">
<path d="M28 40.5C28 33.5964 33.5964 28 40.5 28H65.5C72.4036 28 78 33.5964 78 40.5C78 47.4036 72.4036 53 65.5 53H40.5C33.5964 53 28 47.4036 28 40.5Z" fill="#4DADF7"/>
</g>
<path d="M28 22C28 11.5066 36.5066 3 47 3H59C69.4934 3 78 11.5066 78 22V34C78 44.4934 69.4934 53 59 53H47C36.5066 53 28 44.4934 28 34V22Z" fill="#4DADF7"/>
<path d="M58.5714 22.4286H59.4286C59.5893 22.4286 59.7143 22.3036 59.7143 22.1429V21.5715C59.7143 21.4108 59.5893 21.2858 59.4286 21.2858H46.2857C46.125 21.2858 46 21.4108 46 21.5715V22.1429C46 22.3036 46.125 22.4286 46.2857 22.4286H47.1429C47.1429 25.7322 48.7232 28.1251 50.4732 29.2858C48.7232 30.4465 47.1429 32.8393 47.1429 36.1429H46.2857C46.125 36.1429 46 36.2679 46 36.4286V37.0001C46 37.1608 46.125 37.2858 46.2857 37.2858H59.4286C59.5893 37.2858 59.7143 37.1608 59.7143 37.0001V36.4286C59.7143 36.2679 59.5893 36.1429 59.4286 36.1429H58.5714C58.5714 32.8393 56.9911 30.4465 55.2411 29.2858C56.9911 28.1251 58.5714 25.7322 58.5714 22.4286ZM57.4286 22.4286C57.4286 23.7322 57.1339 24.884 56.6696 25.8572H49.0446C48.5804 24.884 48.2857 23.7322 48.2857 22.4286H57.4286ZM56.9196 33.2858H48.7946C49.4554 31.5626 50.6429 30.3393 51.8304 29.8572H53.8839C55.0714 30.3393 56.2589 31.5626 56.9196 33.2858Z" fill="white"/>
<defs>
<filter id="filter0_f_411_1" x="0.817183" y="0.817183" width="104.366" height="79.3656" filterUnits="userSpaceOnUse" color-interpolation-filters="sRGB">
<feFlood flood-opacity="0" result="BackgroundImageFix"/>
<feBlend mode="normal" in="SourceGraphic" in2="BackgroundImageFix" result="shape"/>
<feGaussianBlur stdDeviation="13.5914" result="effect1_foregroundBlur_411_1"/>
</filter>
</defs>
</svg>
